<svg width="609" height="256" viewBox="0 0 609 256" fill="none" xmlns="http://www.w3.org/2000/svg">
<path d="M135 175V157H117V139H99V121H81V103H99V85H117V67H135V49H171V67H153V85H135V103H117V121H135V139H153V157H171V175H135ZM196.2 175V157H232.2V85H214.2V67H232.2V49H268.2V157H304.2V175H196.2ZM311.4 175V157H293.4V103H311.4V85H419.4V103H329.4V157H419.4V175H311.4ZM426.6 175V157H444.6V139H462.6V121H480.6V103H462.6V85H444.6V67H426.6V49H462.6V67H480.6V85H498.6V103H516.6V121H498.6V139H480.6V157H462.6V175H426.6Z" fill="#5E73DD"/>
<path d="M296.75 58.75V51.25H294.25V50H301.75V51.25H299.25V58.75H296.75ZM301 58.75V50H303.5V53.75H307.25V50H309.75V58.75H307.25V55H303.5V58.75H301Z" fill="#5E73DD"/>
<path d="M48.5352 194.638V202.436" stroke="#383A59" stroke-width="2" stroke-miterlimit="10" stroke-linecap="round" stroke-linejoin="round"/>
<path d="M52.4387 198.537H44.6423" stroke="#383A59" stroke-width="2" stroke-miterlimit="10" stroke-linecap="round" stroke-linejoin="round"/>
<path d="M31.5992 134.767C31.5992 137.378 29.4837 139.506 26.8667 139.506C24.2588 139.506 22.1342 137.388 22.1342 134.767C22.1342 132.155 24.2497 130.028 26.8667 130.028C29.4837 130.037 31.5992 132.155 31.5992 134.767Z" stroke="#383A59" stroke-width="2" stroke-miterlimit="10" stroke-linecap="round" stroke-linejoin="round"/>
<path d="M2.928 51.7163C2.928 52.3888 2.38383 52.9327 1.714 52.9327C1.04417 52.9327 0.5 52.3888 0.5 51.7163C0.5 51.0439 1.04417 50.5 1.714 50.5C2.38383 50.5 2.928 51.0439 2.928 51.7163Z" fill="#1C1E2B" stroke="#1C1E2B"/>
<path d="M14.9008 51.7163C14.9008 52.3888 14.3566 52.9327 13.6868 52.9327C13.0169 52.9327 12.4728 52.3888 12.4728 51.7163C12.4728 51.0439 13.017 50.5 13.6868 50.5C14.3566 50.5 14.9008 51.0439 14.9008 51.7163Z" fill="#1C1E2B" stroke="#1C1E2B"/>
<path d="M26.8644 51.7163C26.8644 52.3888 26.3202 52.9327 25.6504 52.9327C24.9806 52.9327 24.4364 52.3888 24.4364 51.7163C24.4364 51.0439 24.9806 50.5 25.6504 50.5C26.3202 50.5 26.8644 51.0439 26.8644 51.7163Z" fill="#1C1E2B" stroke="#1C1E2B"/>
<path d="M38.8371 51.7163C38.8371 52.3888 38.2929 52.9327 37.6231 52.9327C36.9532 52.9327 36.4091 52.3888 36.4091 51.7163C36.4091 51.0439 36.9532 50.5 37.6231 50.5C38.2929 50.5 38.8371 51.0439 38.8371 51.7163Z" fill="#1C1E2B" stroke="#1C1E2B"/>
<path d="M50.8005 51.7163C50.8005 52.3888 50.2564 52.9327 49.5866 52.9327C48.9167 52.9327 48.3726 52.3888 48.3726 51.7163C48.3726 51.0439 48.9167 50.5 49.5866 50.5C50.2564 50.5 50.8005 51.0439 50.8005 51.7163Z" fill="#1C1E2B" stroke="#1C1E2B"/>
<path d="M62.7732 51.7163C62.7732 52.3888 62.229 52.9327 61.5592 52.9327C60.8894 52.9327 60.3452 52.3888 60.3452 51.7163C60.3452 51.0439 60.8894 50.5 61.5592 50.5C62.229 50.5 62.7732 51.0439 62.7732 51.7163Z" fill="#1C1E2B" stroke="#1C1E2B"/>
<path d="M2.928 63.6963C2.928 64.3687 2.38383 64.9126 1.714 64.9126C1.04417 64.9126 0.5 64.3687 0.5 63.6963C0.5 63.0239 1.04417 62.4799 1.714 62.4799C2.38383 62.4799 2.928 63.0239 2.928 63.6963Z" fill="#1C1E2B" stroke="#1C1E2B"/>
<path d="M14.9008 63.6963C14.9008 64.3687 14.3566 64.9126 13.6868 64.9126C13.0169 64.9126 12.4728 64.3687 12.4728 63.6963C12.4728 63.0239 13.0169 62.4799 13.6868 62.4799C14.3566 62.4799 14.9008 63.0239 14.9008 63.6963Z" fill="#1C1E2B" stroke="#1C1E2B"/>
<path d="M26.8644 63.6963C26.8644 64.3687 26.3202 64.9126 25.6504 64.9126C24.9806 64.9126 24.4364 64.3687 24.4364 63.6963C24.4364 63.0239 24.9806 62.4799 25.6504 62.4799C26.3202 62.4799 26.8644 63.0239 26.8644 63.6963Z" fill="#1C1E2B" stroke="#1C1E2B"/>
<path d="M38.8371 63.6963C38.8371 64.3687 38.2929 64.9126 37.6231 64.9126C36.9532 64.9126 36.4091 64.3687 36.4091 63.6963C36.4091 63.0239 36.9532 62.4799 37.6231 62.4799C38.2929 62.4799 38.8371 63.0239 38.8371 63.6963Z" fill="#1C1E2B" stroke="#1C1E2B"/>
<path d="M50.8005 63.6963C50.8005 64.3687 50.2564 64.9126 49.5866 64.9126C48.9167 64.9126 48.3726 64.3687 48.3726 63.6963C48.3726 63.0239 48.9167 62.4799 49.5866 62.4799C50.2564 62.4799 50.8005 63.0239 50.8005 63.6963Z" fill="#1C1E2B" stroke="#1C1E2B"/>
<path d="M62.7732 63.6963C62.7732 64.3687 62.229 64.9126 61.5592 64.9126C60.8894 64.9126 60.3452 64.3687 60.3452 63.6963C60.3452 63.0239 60.8894 62.4799 61.5592 62.4799C62.229 62.4799 62.7732 63.0239 62.7732 63.6963Z" fill="#1C1E2B" stroke="#1C1E2B"/>
<path d="M2.928 75.6854C2.928 76.3578 2.38383 76.9017 1.714 76.9017C1.04417 76.9017 0.5 76.3578 0.5 75.6854C0.5 75.013 1.04417 74.4691 1.714 74.4691C2.38383 74.4691 2.928 75.013 2.928 75.6854Z" fill="#1C1E2B" stroke="#1C1E2B"/>
<path d="M14.9008 75.6854C14.9008 76.3578 14.3566 76.9017 13.6868 76.9017C13.0169 76.9017 12.4728 76.3578 12.4728 75.6854C12.4728 75.013 13.017 74.4691 13.6868 74.4691C14.3566 74.4691 14.9008 75.013 14.9008 75.6854Z" fill="#1C1E2B" stroke="#1C1E2B"/>
<path d="M26.8644 75.6854C26.8644 76.3578 26.3202 76.9017 25.6504 76.9017C24.9806 76.9017 24.4364 76.3578 24.4364 75.6854C24.4364 75.013 24.9806 74.4691 25.6504 74.4691C26.3202 74.4691 26.8644 75.013 26.8644 75.6854Z" fill="#1C1E2B" stroke="#1C1E2B"/>
<path d="M38.8371 75.6854C38.8371 76.3578 38.2929 76.9017 37.6231 76.9017C36.9532 76.9017 36.4091 76.3578 36.4091 75.6854C36.4091 75.013 36.9532 74.4691 37.6231 74.4691C38.2929 74.4691 38.8371 75.013 38.8371 75.6854Z" fill="#1C1E2B" stroke="#1C1E2B"/>
<path d="M50.8005 75.6854C50.8005 76.3578 50.2564 76.9017 49.5866 76.9017C48.9167 76.9017 48.3726 76.3578 48.3726 75.6854C48.3726 75.013 48.9167 74.4691 49.5866 74.4691C50.2564 74.4691 50.8005 75.013 50.8005 75.6854Z" fill="#1C1E2B" stroke="#1C1E2B"/>
<path d="M62.7732 75.6854C62.7732 76.3578 62.229 76.9017 61.5592 76.9017C60.8894 76.9017 60.3452 76.3578 60.3452 75.6854C60.3452 75.013 60.8894 74.4691 61.5592 74.4691C62.229 74.4691 62.7732 75.013 62.7732 75.6854Z" fill="#1C1E2B" stroke="#1C1E2B"/>
<path d="M2.928 87.6654C2.928 88.3378 2.38383 88.8817 1.714 88.8817C1.04417 88.8817 0.5 88.3378 0.5 87.6654C0.5 86.993 1.04417 86.449 1.714 86.449C2.38383 86.449 2.928 86.993 2.928 87.6654Z" fill="#1C1E2B" stroke="#1C1E2B"/>
<path d="M14.9008 87.6654C14.9008 88.3378 14.3566 88.8817 13.6868 88.8817C13.017 88.8817 12.4728 88.3378 12.4728 87.6654C12.4728 86.993 13.017 86.449 13.6868 86.449C14.3566 86.449 14.9008 86.993 14.9008 87.6654Z" fill="#1C1E2B" stroke="#1C1E2B"/>
<path d="M26.8644 87.6654C26.8644 88.3378 26.3202 88.8817 25.6504 88.8817C24.9806 88.8817 24.4364 88.3378 24.4364 87.6654C24.4364 86.993 24.9806 86.449 25.6504 86.449C26.3202 86.449 26.8644 86.993 26.8644 87.6654Z" fill="#1C1E2B" stroke="#1C1E2B"/>
<path d="M38.8371 87.6654C38.8371 88.3378 38.2929 88.8817 37.6231 88.8817C36.9532 88.8817 36.4091 88.3378 36.4091 87.6654C36.4091 86.993 36.9532 86.449 37.6231 86.449C38.2929 86.449 38.8371 86.993 38.8371 87.6654Z" fill="#1C1E2B" stroke="#1C1E2B"/>
<path d="M50.8005 87.6654C50.8005 88.3378 50.2564 88.8817 49.5866 88.8817C48.9167 88.8817 48.3726 88.3378 48.3726 87.6654C48.3726 86.993 48.9167 86.449 49.5866 86.449C50.2564 86.449 50.8005 86.993 50.8005 87.6654Z" fill="#1C1E2B" stroke="#1C1E2B"/>
<path d="M62.7732 87.6654C62.7732 88.3378 62.229 88.8817 61.5592 88.8817C60.8894 88.8817 60.3452 88.3378 60.3452 87.6654C60.3452 86.993 60.8894 86.449 61.5592 86.449C62.229 86.449 62.7732 86.993 62.7732 87.6654Z" fill="#1C1E2B" stroke="#1C1E2B"/>
<path d="M549.465 100.103C549.465 102.714 547.35 104.842 544.733 104.842C542.125 104.842 540 102.723 540 100.103C540 97.4912 542.116 95.3636 544.733 95.3636C547.35 95.3728 549.465 97.4912 549.465 100.103Z" stroke="#383A59" stroke-width="2" stroke-miterlimit="10" stroke-linecap="round" stroke-linejoin="round"/>
<path d="M607.626 75.7164C607.626 76.3888 607.081 76.9327 606.411 76.9327C605.742 76.9327 605.197 76.3888 605.197 75.7164C605.197 75.044 605.742 74.5 606.411 74.5C607.081 74.5 607.626 75.044 607.626 75.7164Z" fill="#1C1E2B" stroke="#1C1E2B"/>
<path d="M607.626 87.7054C607.626 88.3778 607.082 88.9217 606.412 88.9217C605.742 88.9217 605.198 88.3778 605.198 87.7054C605.198 87.033 605.742 86.4891 606.412 86.4891C607.082 86.4891 607.626 87.033 607.626 87.7054Z" fill="#1C1E2B" stroke="#1C1E2B"/>
<path d="M607.626 99.6854C607.626 100.358 607.082 100.902 606.412 100.902C605.742 100.902 605.198 100.358 605.198 99.6854C605.198 99.013 605.742 98.469 606.412 98.469C607.082 98.469 607.626 99.013 607.626 99.6854Z" fill="#1C1E2B" stroke="#1C1E2B"/>
<path d="M607.626 111.674C607.626 112.347 607.082 112.891 606.412 112.891C605.742 112.891 605.198 112.347 605.198 111.674C605.198 111.002 605.742 110.458 606.412 110.458C607.082 110.458 607.626 111.002 607.626 111.674Z" fill="#1C1E2B" stroke="#1C1E2B"/>
<path d="M607.626 123.654C607.626 124.327 607.082 124.871 606.412 124.871C605.742 124.871 605.198 124.327 605.198 123.654C605.198 122.982 605.742 122.438 606.412 122.438C607.082 122.438 607.626 122.982 607.626 123.654Z" fill="#1C1E2B" stroke="#1C1E2B"/>
<path d="M607.626 135.644C607.626 136.316 607.082 136.86 606.412 136.86C605.742 136.86 605.198 136.316 605.198 135.644C605.198 134.971 605.742 134.427 606.412 134.427C607.082 134.427 607.626 134.971 607.626 135.644Z" fill="#1C1E2B" stroke="#1C1E2B"/>
<path d="M607.626 147.623C607.626 148.296 607.082 148.84 606.412 148.84C605.742 148.84 605.198 148.296 605.198 147.623C605.198 146.951 605.742 146.407 606.412 146.407C607.082 146.407 607.626 146.951 607.626 147.623Z" fill="#1C1E2B" stroke="#1C1E2B"/>
<path d="M595.653 75.7164C595.653 76.3888 595.109 76.9327 594.439 76.9327C593.769 76.9327 593.225 76.3888 593.225 75.7164C593.225 75.044 593.769 74.5 594.439 74.5C595.109 74.5 595.653 75.044 595.653 75.7164Z" fill="#1C1E2B" stroke="#1C1E2B"/>
<path d="M595.653 87.7054C595.653 88.3778 595.109 88.9217 594.439 88.9217C593.769 88.9217 593.225 88.3778 593.225 87.7054C593.225 87.033 593.769 86.4891 594.439 86.4891C595.109 86.4891 595.653 87.033 595.653 87.7054Z" fill="#1C1E2B" stroke="#1C1E2B"/>
<path d="M595.653 99.6854C595.653 100.358 595.109 100.902 594.439 100.902C593.769 100.902 593.225 100.358 593.225 99.6854C593.225 99.013 593.769 98.469 594.439 98.469C595.109 98.469 595.653 99.013 595.653 99.6854Z" fill="#1C1E2B" stroke="#1C1E2B"/>
<path d="M595.653 111.674C595.653 112.347 595.109 112.891 594.439 112.891C593.769 112.891 593.225 112.347 593.225 111.674C593.225 111.002 593.769 110.458 594.439 110.458C595.109 110.458 595.653 111.002 595.653 111.674Z" fill="#1C1E2B" stroke="#1C1E2B"/>
<path d="M595.653 123.654C595.653 124.327 595.109 124.871 594.439 124.871C593.769 124.871 593.225 124.327 593.225 123.654C593.225 122.982 593.769 122.438 594.439 122.438C595.109 122.438 595.653 122.982 595.653 123.654Z" fill="#1C1E2B" stroke="#1C1E2B"/>
<path d="M595.653 135.644C595.653 136.316 595.109 136.86 594.439 136.86C593.769 136.86 593.225 136.316 593.225 135.644C593.225 134.971 593.769 134.427 594.439 134.427C595.109 134.427 595.653 134.971 595.653 135.644Z" fill="#1C1E2B" stroke="#1C1E2B"/>
<path d="M595.653 147.623C595.653 148.296 595.109 148.84 594.439 148.84C593.769 148.84 593.225 148.296 593.225 147.623C593.225 146.951 593.769 146.407 594.439 146.407C595.109 146.407 595.653 146.951 595.653 147.623Z" fill="#1C1E2B" stroke="#1C1E2B"/>
<path d="M583.689 75.7164C583.689 76.3888 583.145 76.9327 582.475 76.9327C581.806 76.9327 581.261 76.3888 581.261 75.7164C581.261 75.044 581.806 74.5 582.475 74.5C583.145 74.5 583.689 75.044 583.689 75.7164Z" fill="#1C1E2B" stroke="#1C1E2B"/>
<path d="M583.689 87.7054C583.689 88.3778 583.145 88.9217 582.475 88.9217C581.806 88.9217 581.261 88.3778 581.261 87.7054C581.261 87.033 581.806 86.4891 582.475 86.4891C583.145 86.4891 583.689 87.033 583.689 87.7054Z" fill="#1C1E2B" stroke="#1C1E2B"/>
<path d="M583.689 99.6854C583.689 100.358 583.145 100.902 582.475 100.902C581.806 100.902 581.261 100.358 581.261 99.6854C581.261 99.013 581.806 98.469 582.475 98.469C583.145 98.469 583.689 99.013 583.689 99.6854Z" fill="#1C1E2B" stroke="#1C1E2B"/>
<path d="M583.689 111.674C583.689 112.347 583.145 112.891 582.475 112.891C581.806 112.891 581.261 112.347 581.261 111.674C581.261 111.002 581.806 110.458 582.475 110.458C583.145 110.458 583.689 111.002 583.689 111.674Z" fill="#1C1E2B" stroke="#1C1E2B"/>
<path d="M583.689 123.654C583.689 124.327 583.145 124.871 582.475 124.871C581.806 124.871 581.261 124.327 581.261 123.654C581.261 122.982 581.806 122.438 582.475 122.438C583.145 122.438 583.689 122.982 583.689 123.654Z" fill="#1C1E2B" stroke="#1C1E2B"/>
<path d="M583.689 135.644C583.689 136.316 583.145 136.86 582.475 136.86C581.806 136.86 581.261 136.316 581.261 135.644C581.261 134.971 581.806 134.427 582.475 134.427C583.145 134.427 583.689 134.971 583.689 135.644Z" fill="#1C1E2B" stroke="#1C1E2B"/>
<path d="M583.689 147.623C583.689 148.296 583.145 148.84 582.475 148.84C581.806 148.84 581.261 148.296 581.261 147.623C581.261 146.951 581.806 146.407 582.475 146.407C583.145 146.407 583.689 146.951 583.689 147.623Z" fill="#1C1E2B" stroke="#1C1E2B"/>
<path d="M571.717 75.7163C571.717 76.3888 571.172 76.9327 570.503 76.9327C569.833 76.9327 569.289 76.3888 569.289 75.7163C569.289 75.0439 569.833 74.5 570.503 74.5C571.172 74.5 571.717 75.0439 571.717 75.7163Z" fill="#1C1E2B" stroke="#1C1E2B"/>
<path d="M571.717 87.7054C571.717 88.3778 571.172 88.9218 570.503 88.9218C569.833 88.9218 569.289 88.3778 569.289 87.7054C569.289 87.033 569.833 86.4891 570.503 86.4891C571.172 86.4891 571.717 87.033 571.717 87.7054Z" fill="#1C1E2B" stroke="#1C1E2B"/>
<path d="M571.717 99.6854C571.717 100.358 571.172 100.902 570.503 100.902C569.833 100.902 569.289 100.358 569.289 99.6854C569.289 99.013 569.833 98.4691 570.503 98.4691C571.172 98.4691 571.717 99.013 571.717 99.6854Z" fill="#1C1E2B" stroke="#1C1E2B"/>
<path d="M571.717 111.674C571.717 112.347 571.172 112.891 570.503 112.891C569.833 112.891 569.289 112.347 569.289 111.674C569.289 111.002 569.833 110.458 570.503 110.458C571.172 110.458 571.717 111.002 571.717 111.674Z" fill="#1C1E2B" stroke="#1C1E2B"/>
<path d="M571.717 123.654C571.717 124.327 571.172 124.871 570.503 124.871C569.833 124.871 569.289 124.327 569.289 123.654C569.289 122.982 569.833 122.438 570.503 122.438C571.172 122.438 571.717 122.982 571.717 123.654Z" fill="#1C1E2B" stroke="#1C1E2B"/>
<path d="M571.717 135.644C571.717 136.316 571.172 136.86 570.503 136.86C569.833 136.86 569.289 136.316 569.289 135.644C569.289 134.971 569.833 134.427 570.503 134.427C571.172 134.427 571.717 134.971 571.717 135.644Z" fill="#1C1E2B" stroke="#1C1E2B"/>
<path d="M571.717 147.623C571.717 148.296 571.172 148.84 570.503 148.84C569.833 148.84 569.289 148.296 569.289 147.623C569.289 146.951 569.833 146.407 570.503 146.407C571.172 146.407 571.717 146.951 571.717 147.623Z" fill="#1C1E2B" stroke="#1C1E2B"/>
<path d="M341.414 1L346.921 6.51422" stroke="#383A59" stroke-width="2" stroke-miterlimit="10" stroke-linecap="round" stroke-linejoin="round"/>
<path d="M346.921 1L341.414 6.51422" stroke="#383A59" stroke-width="2" stroke-miterlimit="10" stroke-linecap="round" stroke-linejoin="round"/>
<path d="M199.928 5.71634C199.928 6.38877 199.384 6.93268 198.714 6.93268C198.044 6.93268 197.5 6.38875 197.5 5.71634C197.5 5.04394 198.044 4.5 198.714 4.5C199.384 4.5 199.928 5.04392 199.928 5.71634Z" fill="#1C1E2B" stroke="#1C1E2B"/>
<path d="M211.892 5.71634C211.892 6.38875 211.348 6.93268 210.678 6.93268C210.008 6.93268 209.464 6.38875 209.464 5.71634C209.464 5.04393 210.008 4.5 210.678 4.5C211.348 4.5 211.892 5.04393 211.892 5.71634Z" fill="#1C1E2B" stroke="#1C1E2B"/>
<path d="M223.864 5.71634C223.864 6.38878 223.32 6.93268 222.65 6.93268C221.981 6.93268 221.436 6.38875 221.436 5.71634C221.436 5.04393 221.981 4.5 222.65 4.5C223.32 4.5 223.864 5.04391 223.864 5.71634Z" fill="#1C1E2B" stroke="#1C1E2B"/>
<path d="M199.928 17.7054C199.928 18.3778 199.384 18.9218 198.714 18.9218C198.044 18.9218 197.5 18.3778 197.5 17.7054C197.5 17.033 198.044 16.4891 198.714 16.4891C199.384 16.4891 199.928 17.033 199.928 17.7054Z" fill="#1C1E2B" stroke="#1C1E2B"/>
<path d="M211.892 17.7054C211.892 18.3779 211.347 18.9218 210.678 18.9218C210.008 18.9218 209.464 18.3779 209.464 17.7054C209.464 17.033 210.008 16.4891 210.678 16.4891C211.347 16.4891 211.892 17.033 211.892 17.7054Z" fill="#1C1E2B" stroke="#1C1E2B"/>
<path d="M223.864 17.7054C223.864 18.3779 223.32 18.9218 222.65 18.9218C221.981 18.9218 221.436 18.3779 221.436 17.7054C221.436 17.033 221.981 16.4891 222.65 16.4891C223.32 16.4891 223.864 17.033 223.864 17.7054Z" fill="#1C1E2B" stroke="#1C1E2B"/>
<path d="M424.331 213.739C424.331 216.351 422.216 218.478 419.599 218.478C416.991 218.478 414.866 216.36 414.866 213.739C414.866 211.128 416.982 209 419.599 209C422.216 209.009 424.331 211.128 424.331 213.739Z" stroke="#383A59" stroke-width="2" stroke-miterlimit="10" stroke-linecap="round" stroke-linejoin="round"/>
<path d="M383.928 241.794C383.928 242.467 383.384 243.01 382.714 243.01C382.044 243.01 381.5 242.467 381.5 241.794C381.5 241.122 382.044 240.578 382.714 240.578C383.384 240.578 383.928 241.122 383.928 241.794Z" fill="#1C1E2B" stroke="#1C1E2B"/>
<path d="M395.901 241.794C395.901 242.467 395.357 243.01 394.687 243.01C394.017 243.01 393.473 242.467 393.473 241.794C393.473 241.122 394.017 240.578 394.687 240.578C395.357 240.578 395.901 241.122 395.901 241.794Z" fill="#1C1E2B" stroke="#1C1E2B"/>
<path d="M407.864 241.794C407.864 242.467 407.32 243.01 406.65 243.01C405.98 243.01 405.436 242.467 405.436 241.794C405.436 241.122 405.98 240.578 406.65 240.578C407.32 240.578 407.864 241.122 407.864 241.794Z" fill="#1C1E2B" stroke="#1C1E2B"/>
<path d="M419.837 241.794C419.837 242.467 419.293 243.01 418.623 243.01C417.953 243.01 417.409 242.467 417.409 241.794C417.409 241.122 417.953 240.578 418.623 240.578C419.293 240.578 419.837 241.122 419.837 241.794Z" fill="#1C1E2B" stroke="#1C1E2B"/>
<path d="M431.801 241.794C431.801 242.467 431.256 243.01 430.587 243.01C429.917 243.01 429.373 242.467 429.373 241.794C429.373 241.122 429.917 240.578 430.587 240.578C431.256 240.578 431.801 241.122 431.801 241.794Z" fill="#1C1E2B" stroke="#1C1E2B"/>
<path d="M383.928 253.783C383.928 254.456 383.384 255 382.714 255C382.044 255 381.5 254.456 381.5 253.783C381.5 253.111 382.044 252.567 382.714 252.567C383.384 252.567 383.928 253.111 383.928 253.783Z" fill="#1C1E2B" stroke="#1C1E2B"/>
<path d="M395.901 253.783C395.901 254.456 395.356 255 394.687 255C394.017 255 393.473 254.456 393.473 253.783C393.473 253.111 394.017 252.567 394.687 252.567C395.356 252.567 395.901 253.111 395.901 253.783Z" fill="#1C1E2B" stroke="#1C1E2B"/>
<path d="M407.864 253.783C407.864 254.456 407.32 255 406.65 255C405.98 255 405.436 254.456 405.436 253.783C405.436 253.111 405.98 252.567 406.65 252.567C407.32 252.567 407.864 253.111 407.864 253.783Z" fill="#1C1E2B" stroke="#1C1E2B"/>
<path d="M419.837 253.783C419.837 254.456 419.293 255 418.623 255C417.953 255 417.409 254.456 417.409 253.783C417.409 253.111 417.953 252.567 418.623 252.567C419.293 252.567 419.837 253.111 419.837 253.783Z" fill="#1C1E2B" stroke="#1C1E2B"/>
<path d="M431.801 253.783C431.801 254.456 431.256 255 430.587 255C429.917 255 429.373 254.456 429.373 253.783C429.373 253.111 429.917 252.567 430.587 252.567C431.256 252.567 431.801 253.111 431.801 253.783Z" fill="#1C1E2B" stroke="#1C1E2B"/>
</svg>
